<?xml version="1.0" encoding="UTF-8"?>
<svg id="Layer_1" xmlns="http://www.w3.org/2000/svg" version="1.1" viewBox="0 0 24 24">
  <!-- Generator: Adobe Illustrator 29.8.0, SVG Export Plug-In . SVG Version: 2.1.1 Build 160)  -->
  <defs>
    <style>
      .st0 {
        fill: #fff;
      }
    </style>
  </defs>
  <path class="st0" d="M9.35,8.57l-2.88,6.87h-1.88l-1.42-5.48c-.09-.34-.16-.46-.42-.6-.43-.23-1.13-.45-1.75-.58l.04-.2h3.02c.39,0,.73.26.82.7l.75,3.98,1.85-4.68h1.87ZM16.72,13.2c0-1.81-2.51-1.91-2.49-2.72,0-.25.24-.51.75-.58.25-.03.96-.06,1.75.31l.31-1.46c-.43-.16-.98-.3-1.66-.3-1.76,0-2.99.93-3,2.27-.01.99.88,1.54,1.56,1.87.69.34.93.55.92.85,0,.46-.55.66-1.06.67-.89.01-1.41-.24-1.83-.43l-.32,1.51c.42.19,1.18.36,1.98.37,1.87,0,3.09-.92,3.09-2.35M21.36,15.45h1.64l-1.44-6.87h-1.52c-.34,0-.63.2-.76.5l-2.67,6.37h1.87l.37-1.03h2.28l.21,1.03ZM19.37,13.01l.94-2.58.54,2.58h-1.47ZM11.89,8.57l-1.47,6.87h-1.78l1.47-6.87h1.78Z"/>
</svg>