<?xml version="1.0" encoding="UTF-8"?><!DOCTYPE svg PUBLIC "-//W3C//DTD SVG 1.1//EN" "http://www.w3.org/Graphics/SVG/1.1/DTD/svg11.dtd"><svg xmlns="http://www.w3.org/2000/svg" xmlns:xlink="http://www.w3.org/1999/xlink" style="display:none" aria-hidden="true"><symbol id="ontario-icon-twitter-alt"><path d="M5 3h14a2 2 0 012 2v14a2 2 0 01-2 2H5a2 2 0 01-2-2V5a2 2 0 012-2zm12.7 6.33c.48-.4 1.04-.88 1.3-1.4-.4.2-.9.34-1.44.4.5-.36.9-.83 1.12-1.47-.52.28-1.05.52-1.7.64-1.55-1.87-5.26-.35-4.6 2.45-2.6-.16-4.2-1.34-5.52-2.8-.75 1.22-.1 3.07.8 3.58-.46-.03-.8-.17-1.14-.33.04 1.54.9 2.28 2.08 2.68-.36.07-.76.1-1.14.03C7.8 14.2 8.58 14.86 9.9 15c-.9.76-2.56 1.3-3.9 1.08 1.15.73 2.46 1.3 4.28 1.23 4.4-.2 7.36-3.36 7.43-7.98z" fill=""/></symbol><symbol id="ontario-icon-twitter"><path d="M22.46 6c-.77.35-1.6.58-2.46.7a4.3 4.3 0 001.88-2.38 8.64 8.64 0 01-2.72 1.05C18.37 4.5 17.26 4 16 4c-2.35 0-4.27 1.92-4.27 4.3a4.46 4.46 0 00.11.98A12.23 12.23 0 013 4.8c-.37.63-.58 1.37-.58 2.15 0 1.5.75 2.8 1.9 3.56-.7 0-1.37-.2-1.95-.5v.03c0 2.08 1.48 3.82 3.44 4.2a4.22 4.22 0 01-1.13.15c-.27 0-.54-.03-.8-.08a4.28 4.28 0 004 2.98 8.5 8.5 0 01-5.33 1.84c-.34 0-.68-.02-1.02-.06C3.44 20.3 5.7 21 8.12 21c7.88 0 12.2-6.54 12.2-12.2 0-.2 0-.37-.01-.56.84-.6 1.56-1.36 2.14-2.23z" fill=""/></symbol><symbol id="ontario-icon-unlock"><path d="M18 8a2 2 0 012 2v10a2 2 0 01-2 2H6a2 2 0 01-2-2V10a2 2 0 012-2h9V6a3 3 0 00-3-3 3 3 0 00-3 3H7a5 5 0 015-5 5 5 0 013.536 1.464A5 5 0 0117 6v2h1zm-6 9a2 2 0 002-2 2 2 0 00-2-2 2 2 0 00-2 2 2 2 0 002 2z" fill=""/></symbol><symbol id="ontario-icon-chevron-up"><path d="M12 8l-6 6 1.41 1.41L12 10.83l4.59 4.58L18 14z" fill=""/><path d="M0 0h24v24H0z" fill=""/></symbol><symbol id="ontario-icon-upload"><path d="M9 16v-6H5l7-7 7 7h-4v6H9zm-4 4v-2h14v2H5z" fill=""/></symbol><symbol id="ontario-icon-video"><path d="M21 3H3c-1.1 0-2 .9-2 2v12a2 2 0 002 2h5v2h8v-2h5c1.1 0 2-.9 2-2V5a2 2 0 00-2-2zm0 14H3V5h18v12zm-5-6l-7 4V7l7 4z" fill=""/></symbol><symbol id="ontario-icon-vpn-key"><path d="M12.65 10A5.99 5.99 0 007 6c-3.3 0-6 2.7-6 6s2.7 6 6 6a5.99 5.99 0 005.65-4H17v4h4v-4h2v-4H12.65zM7 14c-1.1 0-2-.9-2-2s.9-2 2-2 2 .9 2 2-.9 2-2 2z" fill=""/></symbol><symbol id="ontario-icon-transport-walk"><path d="M13.326 5.407a1.96 1.96 0 001.954-1.953A1.96 1.96 0 0013.326 1.5a1.96 1.96 0 00-1.953 1.953 1.96 1.96 0 001.954 1.953zm-3.614 3.32L6.977 22.5h2.05l1.758-7.814 2.05 1.954v5.86h1.954v-7.326l-2.05-1.953.586-2.93c1.27 1.465 3.026 2.442 5.174 2.442V10.78c-1.856 0-3.22-.977-4.002-2.344l-.977-1.563c-.39-.586-.977-.977-1.66-.977-.193 0-.56.005-.78.098L6 8.142v4.59h1.953v-3.32l1.758-.684z" fill=""/></symbol><symbol id="ontario-icon-alert-warning"><path d="M1 21h22L12 2 1 21zm12-3h-2v-2h2v2zm0-4h-2v-4h2v4z" fill=""/></symbol><symbol id="ontario-icon-wheelchair"><path d="M19 13v-2c-1.54.02-3.1-.75-4.07-1.83l-1.3-1.43c-.25-.24-.4-.316-.64-.46a2.01 2.01 0 00-1.2-.26c-1.05.1-1.8 1.02-1.8 2.07V15c0 1.1.9 2 2 2h5v5h2v-5.5c0-1.1-.9-2-2-2h-3v-3.45c1.3 1.07 3.25 1.94 5 1.95zm-6.17 5c-.4 1.16-1.52 2-2.83 2-1.66 0-3-1.34-3-3 0-1.3.84-2.4 2-2.83V12.1A5 5 0 005 17c0 2.76 2.24 5 5 5a5 5 0 004.9-4h-2.07zM12 6a2 2 0 100-4 2 2 0 100 4z" fill=""/></symbol><symbol id="ontario-icon-wifi"><path fill="" d="M0 0h24v24H0z"/><path d="M1 9l2 2c4.97-4.97 13.03-4.97 18 0l2-2C16.93 2.93 7.08 2.93 1 9zm8 8l3 3 3-3a4.237 4.237 0 00-6 0zm-4-4l2 2a7.074 7.074 0 0110 0l2-2C15.14 9.14 8.87 9.14 5 13z" fill=""/></symbol><symbol id="ontario-icon-youtube"><path d="M10 15l5.2-3L10 9v6zm11.56-7.83c.13.47.22 1.1.28 1.9l.1 2.1.06.84c0 2.2-.16 3.8-.44 4.83a2.34 2.34 0 01-1.73 1.73c-.47.13-1.33.22-2.65.28l-3.6.1L12 19c-4.2 0-6.8-.16-7.83-.44a2.34 2.34 0 01-1.73-1.73c-.13-.47-.22-1.1-.28-1.9l-.1-2.1L2 12c0-2.2.16-3.8.44-4.83a2.34 2.34 0 011.73-1.73c.47-.13 1.33-.22 2.65-.28l3.6-.1L12 5c4.2 0 6.8.16 7.83.44a2.34 2.34 0 011.73 1.73z" fill=""/></symbol></svg>